<svg xmlns="http://www.w3.org/2000/svg" xmlns:xlink="http://www.w3.org/1999/xlink" contentStyleType="text/css" data-diagram-type="DESCRIPTION" height="692.7083px" preserveAspectRatio="none" style="width:657px;height:692px;" version="1.1" viewBox="0 0 657 692" width="657.2917px" zoomAndPan="magnify"><?plantuml 1.2026.3beta5?><defs/><g><!--cluster EmployeeManager System--><g class="cluster" data-qualified-name="EmployeeManager System" data-source-line="8" id="ent0004"><rect fill="#555555" height="655.2083" rx="4.1667" ry="4.1667" style="stroke:#2A9FD6;stroke-width:2.0833;" width="250.7604" x="153.1354" y="17.7083"/><text fill="#FFFFFF" font-family="'Verdana'" font-size="12.5" font-weight="700" lengthAdjust="spacing" textLength="186.7065" x="185.1624" y="36.6028">EmployeeManager System</text></g><!--entity UC1--><g class="entity" data-qualified-name="EmployeeManager System.UC1" data-source-line="9" id="ent0005"><ellipse cx="278.5228" cy="322.9129" fill="#2A9FD6" rx="76.8562" ry="17.8712" style="stroke:#55B2DE;stroke-width:2.0833;"/><text fill="#FFFFFF" font-family="'Verdana'" font-size="12.5" lengthAdjust="spacing" textLength="128.2654" x="214.3901" y="326.5425">Autentificare (Login)</text></g><!--entity UC2--><g class="entity" data-qualified-name="EmployeeManager System.UC2" data-source-line="10" id="ent0006"><ellipse cx="278.5188" cy="165.6204" fill="#2A9FD6" rx="107.6854" ry="24.0371" style="stroke:#55B2DE;stroke-width:2.0833;"/><text fill="#FFFFFF" font-family="'Verdana'" font-size="12.5" lengthAdjust="spacing" textLength="196.0571" x="180.4902" y="169.25">Efectuare Pontaj (Check-in/out)</text></g><!--entity UC3--><g class="entity" data-qualified-name="EmployeeManager System.UC3" data-source-line="11" id="ent0007"><ellipse cx="278.5253" cy="83.3321" fill="#2A9FD6" rx="94.6295" ry="21.4259" style="stroke:#55B2DE;stroke-width:2.0833;"/><text fill="#FFFFFF" font-family="'Verdana'" font-size="12.5" lengthAdjust="spacing" textLength="167.926" x="194.5623" y="86.9617">Vizualizare Istoric Personal</text></g><!--entity UC4--><g class="entity" data-qualified-name="EmployeeManager System.UC4" data-source-line="12" id="ent0008"><ellipse cx="278.5226" cy="246.8733" fill="#2A9FD6" rx="93.533" ry="21.2066" style="stroke:#55B2DE;stroke-width:2.0833;"/><text fill="#FFFFFF" font-family="'Verdana'" font-size="12.5" lengthAdjust="spacing" textLength="165.5334" x="195.7559" y="250.5028">Trimitere Cerere Concediu</text></g><!--entity UC5--><g class="entity" data-qualified-name="EmployeeManager System.UC5" data-source-line="14" id="ent0009"><ellipse cx="278.5228" cy="634.3712" fill="#2A9FD6" rx="97.3249" ry="21.965" style="stroke:#55B2DE;stroke-width:2.0833;"/><text fill="#FFFFFF" font-family="'Verdana'" font-size="12.5" lengthAdjust="spacing" textLength="173.7854" x="191.6301" y="638.0008">Gestionare Angaja&#539;i (CRUD)</text></g><!--entity UC6--><g class="entity" data-qualified-name="EmployeeManager System.UC6" data-source-line="15" id="ent0010"><ellipse cx="278.5181" cy="558.3349" fill="#2A9FD6" rx="73.2368" ry="17.1474" style="stroke:#55B2DE;stroke-width:2.0833;"/><text fill="#FFFFFF" font-family="'Verdana'" font-size="12.5" lengthAdjust="spacing" textLength="119.873" x="218.5816" y="561.9644">Import Date (JSON)</text></g><!--entity UC7--><g class="entity" data-qualified-name="EmployeeManager System.UC7" data-source-line="16" id="ent0011"><ellipse cx="278.5255" cy="483.3384" fill="#2A9FD6" rx="93.3068" ry="21.1614" style="stroke:#55B2DE;stroke-width:2.0833;"/><text fill="#FFFFFF" font-family="'Verdana'" font-size="12.5" lengthAdjust="spacing" textLength="165.0391" x="196.006" y="486.968">Generare Rapoarte/Export</text></g><!--entity UC8--><g class="entity" data-qualified-name="EmployeeManager System.UC8" data-source-line="17" id="ent0012"><ellipse cx="278.5258" cy="401.0447" fill="#2A9FD6" rx="108.7133" ry="24.2427" style="stroke:#55B2DE;stroke-width:2.0833;"/><text fill="#FFFFFF" font-family="'Verdana'" font-size="12.5" lengthAdjust="spacing" textLength="198.2483" x="179.4016" y="404.6743">Vizualizare Dashboard Statistici</text></g><!--entity User--><g class="entity" data-qualified-name="User" data-source-line="5" id="ent0002"><ellipse cx="59.3842" cy="171.375" fill="#2A9FD6" rx="8.3333" ry="8.3333" style="stroke:#55B2DE;stroke-width:1.0417;"/><path d="M59.3842,179.7083 L59.3842,207.8333 M45.8426,188.0417 L72.9259,188.0417 M59.3842,207.8333 L45.8426,223.4583 M59.3842,207.8333 L72.9259,223.4583" fill="none" style="stroke:#55B2DE;stroke-width:1.0417;"/><text fill="#ADAFAE" font-family="'Verdana'" font-size="12.5" lengthAdjust="spacing" textLength="48.1018" x="35.3333" y="242.3528">Angajat</text></g><!--entity Admin--><g class="entity" data-qualified-name="Admin" data-source-line="6" id="ent0003"><ellipse cx="59.3821" cy="448.4583" fill="#2A9FD6" rx="8.3333" ry="8.3333" style="stroke:#55B2DE;stroke-width:1.0417;"/><path d="M59.3821,456.7917 L59.3821,484.9167 M45.8405,465.125 L72.9238,465.125 M59.3821,484.9167 L45.8405,500.5417 M59.3821,484.9167 L72.9238,500.5417" fill="none" style="stroke:#55B2DE;stroke-width:1.0417;"/><text fill="#ADAFAE" font-family="'Verdana'" font-size="12.5" lengthAdjust="spacing" textLength="85.4309" x="16.6667" y="519.4361">Administrator</text></g><g class="entity" data-qualified-name="GMN22" data-source-line="31" id="ent0023"><path d="M449.7292,620.8542 L449.7292,630.2083 L376.3021,634.375 L449.7292,638.5417 L449.7292,647.9049 A4.1667,4.1667 0 0 0 453.8958,652.0716 L632.9201,652.0716 A4.1667,4.1667 0 0 0 637.0868,647.9049 L637.0868,627.1042 L626.6701,616.6875 L453.8958,616.6875 A4.1667,4.1667 0 0 0 449.7292,620.8542" fill="#9933CC" style="stroke:#AD5CD6;stroke-width:1.0417;"/><path d="M626.6701,616.6875 L626.6701,625.0208 A2.0833,2.0833 0 0 0 628.7534,627.1042 L637.0868,627.1042 L626.6701,616.6875" fill="#9933CC" style="stroke:#AD5CD6;stroke-width:1.0417;"/><text fill="#FFFFFF" font-family="'Verdana'" font-size="12.5" lengthAdjust="spacing" textLength="155.0659" x="461.1875" y="638.7069">Include Add, Edit, Delete</text></g><!--link User to UC1--><g class="link" data-entity-1="ent0002" data-entity-2="ent0005" data-link-type="dependency" data-source-line="20" id="lnk13"><path d="M89.0625,240.4167 C104.1563,256.4688 123.8646,274.6354 144.8021,286.4583 C166.3333,298.6146 186.0583,305.4465 209.1729,310.9986" fill="none" id="User-to-UC1" style="stroke:#2A9FD6;stroke-width:3.125;"/><polygon fill="#2A9FD6" points="215.25,312.4583,207.1074,306.2173,210.1857,311.2419,205.1611,314.3202,215.25,312.4583" style="stroke:#2A9FD6;stroke-width:3.125;"/></g><!--link User to UC2--><g class="link" data-entity-1="ent0002" data-entity-2="ent0006" data-link-type="dependency" data-source-line="21" id="lnk14"><path d="M88.8021,200.9375 C115.6875,195.9063 151.2627,189.2423 188.6481,182.2528" fill="none" id="User-to-UC2" style="stroke:#2A9FD6;stroke-width:3.125;"/><polygon fill="#2A9FD6" points="194.7917,181.1042,184.8106,178.7314,189.672,182.0613,186.3421,186.9228,194.7917,181.1042" style="stroke:#2A9FD6;stroke-width:3.125;"/></g><!--link User to UC3--><g class="link" data-entity-1="ent0002" data-entity-2="ent0007" data-link-type="dependency" data-source-line="22" id="lnk15"><path d="M88.9479,170.9167 C104.0104,154.2813 123.7188,135.3958 144.8021,122.9167 C163.625,111.7708 179.8257,105.2758 200.6278,99.3071" fill="none" id="User-to-UC3" style="stroke:#2A9FD6;stroke-width:3.125;"/><polygon fill="#2A9FD6" points="206.6354,97.5833,196.4749,96.1639,201.6291,99.0198,198.7732,104.174,206.6354,97.5833" style="stroke:#2A9FD6;stroke-width:3.125;"/></g><!--link User to UC4--><g class="link" data-entity-1="ent0002" data-entity-2="ent0008" data-link-type="dependency" data-source-line="23" id="lnk16"><path d="M88.8021,211.5625 C118.2188,217.0625 159.242,224.7466 199.0545,232.1945" fill="none" id="User-to-UC4" style="stroke:#2A9FD6;stroke-width:3.125;"/><polygon fill="#2A9FD6" points="205.1979,233.3438,196.749,227.5242,200.0784,232.386,195.2166,235.7154,205.1979,233.3438" style="stroke:#2A9FD6;stroke-width:3.125;"/></g><!--link Admin to UC1--><g class="link" data-entity-1="ent0003" data-entity-2="ent0005" data-link-type="dependency" data-source-line="25" id="lnk17"><path d="M80.3438,438.7917 C94.6146,411.7396 116.3333,378.6146 144.8021,358.3333 C163.8333,344.7813 181.6516,337.8304 203.9016,332.6637" fill="none" id="Admin-to-UC1" style="stroke:#2A9FD6;stroke-width:3.125;"/><polygon fill="#2A9FD6" points="209.9896,331.25,199.9151,329.3119,204.9162,332.4281,201.8,337.4292,209.9896,331.25" style="stroke:#2A9FD6;stroke-width:3.125;"/></g><!--link Admin to UC5--><g class="link" data-entity-1="ent0003" data-entity-2="ent0009" data-link-type="dependency" data-source-line="26" id="lnk18"><path d="M85.3542,528.0521 C100.0104,550.6563 120.4479,576.8021 144.8021,593.75 C162.0104,605.7188 176.8605,612.4331 196.8709,618.4748" fill="none" id="Admin-to-UC5" style="stroke:#2A9FD6;stroke-width:3.125;"/><polygon fill="#2A9FD6" points="202.8542,620.2813,195.0836,613.5827,197.8681,618.7758,192.675,621.5603,202.8542,620.2813" style="stroke:#2A9FD6;stroke-width:3.125;"/></g><!--link Admin to UC6--><g class="link" data-entity-1="ent0003" data-entity-2="ent0010" data-link-type="dependency" data-source-line="27" id="lnk19"><path d="M107.5417,507.2396 C119.5208,512.8125 132.4896,518.4271 144.8021,522.9167 C170.4479,532.2708 193.6311,538.8419 218.1206,544.9044" fill="none" id="Admin-to-UC6" style="stroke:#2A9FD6;stroke-width:3.125;"/><polygon fill="#2A9FD6" points="224.1875,546.4063,216.0885,540.1089,219.1318,545.1547,214.0859,548.198,224.1875,546.4063" style="stroke:#2A9FD6;stroke-width:3.125;"/></g><!--link Admin to UC7--><g class="link" data-entity-1="ent0003" data-entity-2="ent0011" data-link-type="dependency" data-source-line="28" id="lnk20"><path d="M107.7917,483.3333 C130.3646,483.3333 151.9375,483.3333 178.4688,483.3333" fill="none" id="Admin-to-UC7" style="stroke:#2A9FD6;stroke-width:3.125;"/><polygon fill="#2A9FD6" points="184.7188,483.3333,175.3438,479.1667,179.5104,483.3333,175.3438,487.5,184.7188,483.3333" style="stroke:#2A9FD6;stroke-width:3.125;"/></g><!--link Admin to UC8--><g class="link" data-entity-1="ent0003" data-entity-2="ent0012" data-link-type="dependency" data-source-line="29" id="lnk21"><path d="M107.7083,459.8646 C119.6875,454.2813 132.6146,448.5521 144.8021,443.75 C166.1979,435.3333 184.0213,429.1698 205.4797,422.3677" fill="none" id="Admin-to-UC8" style="stroke:#2A9FD6;stroke-width:3.125;"/><polygon fill="#2A9FD6" points="211.4375,420.4792,201.2417,419.3401,206.4726,422.053,203.7598,427.2839,211.4375,420.4792" style="stroke:#2A9FD6;stroke-width:3.125;"/></g><?plantuml-src TPBBJa8n48RtVOgHbIOGuXNYmeG0CHWl1CJzq3CSHivfJzevYMXy4b_8nxBbbh9mq-Plltywbvx8aae2lPvRbwk25W9YmN6-5CZOaHQsHlaLcmeTbb2XNc5EKraN1F4QJLwGKgZ5EcZqJ8xlA0r03pDFxd2UbMpOYyCWDxUR4wKE8Q0nBAl2hecUq8GN74pNNgXim9S2g3rfz07grK96UC4Q7S7feytPd6sVwv-du70H8jSH6biZ-0wd_INfLOjDszQojroabZV-hB7WpsWQ-P0eQnYJyzPWiUClK_xLSSb2WUw79MxMQCguti5N0KxvU_Ancp7yja-_FnpIcim6-tIkKtnKLjO93512eG_Jb-SzTNCSr92B8ITOMNH2xU57zEtOpdy53j0lvy6GmLHGmcXOyyxJLTzAnUb1gtMtwMiYBb9ncOehfJP3FRXITNsaRevKvqXrbJ8sbBpzWtOHpN0B8wEBEWkTox8c33EM9Woe8A4_?></g></svg>